<mxfile host="app.diagrams.net" modified="2023-07-09T19:30:42.006Z" agent="Mozilla/5.0 (Macintosh; Intel Mac OS X 10.15; rv:109.0) Gecko/20100101 Firefox/114.0" etag="1jm7LzebCUtcHFhuyIBq" version="21.6.1" type="device">
  <diagram name="Page-1" id="lXLQd6UyP1ND9gE5PToc">
    <mxGraphModel dx="795" dy="456" grid="1" gridSize="10" guides="1" tooltips="1" connect="1" arrows="1" fold="1" page="1" pageScale="1" pageWidth="850" pageHeight="1100" math="0" shadow="0">
      <root>
        <mxCell id="0" />
        <mxCell id="1" parent="0" />
        <mxCell id="qH5AfbM5EPDE3e2Da-9J-1" value="&lt;div&gt;«interface»&lt;/div&gt;&lt;div&gt;&lt;b&gt;BurguerStrategy&lt;/b&gt;&lt;/div&gt;&lt;div&gt;&lt;b&gt;&lt;br&gt;&lt;/b&gt;&lt;/div&gt;&lt;div&gt;&lt;b&gt;+ execute()&lt;br&gt;&lt;/b&gt;&lt;/div&gt;" style="html=1;whiteSpace=wrap;fillColor=#008a00;fontColor=#ffffff;strokeColor=#005700;" vertex="1" parent="1">
          <mxGeometry x="380" y="570" width="120" height="60" as="geometry" />
        </mxCell>
        <mxCell id="qH5AfbM5EPDE3e2Da-9J-19" style="edgeStyle=orthogonalEdgeStyle;rounded=0;orthogonalLoop=1;jettySize=auto;html=1;" edge="1" parent="1" source="qH5AfbM5EPDE3e2Da-9J-2" target="qH5AfbM5EPDE3e2Da-9J-10">
          <mxGeometry relative="1" as="geometry" />
        </mxCell>
        <mxCell id="qH5AfbM5EPDE3e2Da-9J-20" style="edgeStyle=orthogonalEdgeStyle;rounded=0;orthogonalLoop=1;jettySize=auto;html=1;entryX=0.548;entryY=0.006;entryDx=0;entryDy=0;entryPerimeter=0;" edge="1" parent="1" source="qH5AfbM5EPDE3e2Da-9J-2" target="qH5AfbM5EPDE3e2Da-9J-15">
          <mxGeometry relative="1" as="geometry" />
        </mxCell>
        <mxCell id="qH5AfbM5EPDE3e2Da-9J-21" style="edgeStyle=orthogonalEdgeStyle;rounded=0;orthogonalLoop=1;jettySize=auto;html=1;entryX=0.5;entryY=0;entryDx=0;entryDy=0;" edge="1" parent="1" source="qH5AfbM5EPDE3e2Da-9J-2" target="qH5AfbM5EPDE3e2Da-9J-17">
          <mxGeometry relative="1" as="geometry" />
        </mxCell>
        <mxCell id="qH5AfbM5EPDE3e2Da-9J-2" value="&lt;div&gt;Burguer&lt;/div&gt;&lt;div&gt;&lt;br&gt;&lt;/div&gt;" style="swimlane;fontStyle=1;align=center;verticalAlign=top;childLayout=stackLayout;horizontal=1;startSize=26;horizontalStack=0;resizeParent=1;resizeParentMax=0;resizeLast=0;collapsible=1;marginBottom=0;whiteSpace=wrap;html=1;fillColor=#1ba1e2;fontColor=#ffffff;strokeColor=#006EAF;" vertex="1" parent="1">
          <mxGeometry x="360" y="200" width="160" height="86" as="geometry" />
        </mxCell>
        <mxCell id="qH5AfbM5EPDE3e2Da-9J-3" value="+ strategy" style="text;strokeColor=none;fillColor=none;align=left;verticalAlign=top;spacingLeft=4;spacingRight=4;overflow=hidden;rotatable=0;points=[[0,0.5],[1,0.5]];portConstraint=eastwest;whiteSpace=wrap;html=1;" vertex="1" parent="qH5AfbM5EPDE3e2Da-9J-2">
          <mxGeometry y="26" width="160" height="26" as="geometry" />
        </mxCell>
        <mxCell id="qH5AfbM5EPDE3e2Da-9J-4" value="" style="line;strokeWidth=1;fillColor=none;align=left;verticalAlign=middle;spacingTop=-1;spacingLeft=3;spacingRight=3;rotatable=0;labelPosition=right;points=[];portConstraint=eastwest;strokeColor=inherit;" vertex="1" parent="qH5AfbM5EPDE3e2Da-9J-2">
          <mxGeometry y="52" width="160" height="8" as="geometry" />
        </mxCell>
        <mxCell id="qH5AfbM5EPDE3e2Da-9J-5" value="+ cook()" style="text;strokeColor=none;fillColor=none;align=left;verticalAlign=top;spacingLeft=4;spacingRight=4;overflow=hidden;rotatable=0;points=[[0,0.5],[1,0.5]];portConstraint=eastwest;whiteSpace=wrap;html=1;" vertex="1" parent="qH5AfbM5EPDE3e2Da-9J-2">
          <mxGeometry y="60" width="160" height="26" as="geometry" />
        </mxCell>
        <mxCell id="qH5AfbM5EPDE3e2Da-9J-28" style="edgeStyle=orthogonalEdgeStyle;rounded=0;orthogonalLoop=1;jettySize=auto;html=1;dashed=1;" edge="1" parent="1" source="qH5AfbM5EPDE3e2Da-9J-10" target="qH5AfbM5EPDE3e2Da-9J-1">
          <mxGeometry relative="1" as="geometry" />
        </mxCell>
        <mxCell id="qH5AfbM5EPDE3e2Da-9J-10" value="&lt;div&gt;AvalancheBurger&lt;/div&gt;" style="swimlane;fontStyle=0;childLayout=stackLayout;horizontal=1;startSize=26;fillColor=#d80073;horizontalStack=0;resizeParent=1;resizeParentMax=0;resizeLast=0;collapsible=1;marginBottom=0;whiteSpace=wrap;html=1;fontColor=#ffffff;strokeColor=#A50040;" vertex="1" parent="1">
          <mxGeometry x="370" y="390" width="140" height="52" as="geometry" />
        </mxCell>
        <mxCell id="qH5AfbM5EPDE3e2Da-9J-11" value="+ execute()" style="text;strokeColor=none;fillColor=none;align=left;verticalAlign=top;spacingLeft=4;spacingRight=4;overflow=hidden;rotatable=0;points=[[0,0.5],[1,0.5]];portConstraint=eastwest;whiteSpace=wrap;html=1;" vertex="1" parent="qH5AfbM5EPDE3e2Da-9J-10">
          <mxGeometry y="26" width="140" height="26" as="geometry" />
        </mxCell>
        <mxCell id="qH5AfbM5EPDE3e2Da-9J-25" style="edgeStyle=orthogonalEdgeStyle;rounded=0;orthogonalLoop=1;jettySize=auto;html=1;entryX=0.004;entryY=0.679;entryDx=0;entryDy=0;entryPerimeter=0;" edge="1" parent="1" source="qH5AfbM5EPDE3e2Da-9J-14" target="qH5AfbM5EPDE3e2Da-9J-3">
          <mxGeometry relative="1" as="geometry" />
        </mxCell>
        <mxCell id="qH5AfbM5EPDE3e2Da-9J-14" value="" style="image;sketch=0;aspect=fixed;html=1;points=[];align=center;fontSize=12;image=img/lib/mscae/Person.svg;" vertex="1" parent="1">
          <mxGeometry x="110" y="218" width="37" height="50" as="geometry" />
        </mxCell>
        <mxCell id="qH5AfbM5EPDE3e2Da-9J-29" style="edgeStyle=orthogonalEdgeStyle;rounded=0;orthogonalLoop=1;jettySize=auto;html=1;entryX=1;entryY=0.5;entryDx=0;entryDy=0;dashed=1;" edge="1" parent="1" source="qH5AfbM5EPDE3e2Da-9J-15" target="qH5AfbM5EPDE3e2Da-9J-1">
          <mxGeometry relative="1" as="geometry">
            <Array as="points">
              <mxPoint x="600" y="600" />
            </Array>
          </mxGeometry>
        </mxCell>
        <mxCell id="qH5AfbM5EPDE3e2Da-9J-15" value="&lt;div&gt;DreamBurger&lt;/div&gt;" style="swimlane;fontStyle=0;childLayout=stackLayout;horizontal=1;startSize=26;fillColor=#e51400;horizontalStack=0;resizeParent=1;resizeParentMax=0;resizeLast=0;collapsible=1;marginBottom=0;whiteSpace=wrap;html=1;fontColor=#ffffff;strokeColor=#B20000;" vertex="1" parent="1">
          <mxGeometry x="520" y="390" width="140" height="52" as="geometry" />
        </mxCell>
        <mxCell id="qH5AfbM5EPDE3e2Da-9J-16" value="+ execute()" style="text;strokeColor=none;fillColor=none;align=left;verticalAlign=top;spacingLeft=4;spacingRight=4;overflow=hidden;rotatable=0;points=[[0,0.5],[1,0.5]];portConstraint=eastwest;whiteSpace=wrap;html=1;" vertex="1" parent="qH5AfbM5EPDE3e2Da-9J-15">
          <mxGeometry y="26" width="140" height="26" as="geometry" />
        </mxCell>
        <mxCell id="qH5AfbM5EPDE3e2Da-9J-30" style="edgeStyle=orthogonalEdgeStyle;rounded=0;orthogonalLoop=1;jettySize=auto;html=1;entryX=0;entryY=0.5;entryDx=0;entryDy=0;dashed=1;" edge="1" parent="1" source="qH5AfbM5EPDE3e2Da-9J-17" target="qH5AfbM5EPDE3e2Da-9J-1">
          <mxGeometry relative="1" as="geometry">
            <Array as="points">
              <mxPoint x="260" y="600" />
            </Array>
          </mxGeometry>
        </mxCell>
        <mxCell id="qH5AfbM5EPDE3e2Da-9J-17" value="&lt;div&gt;HulkSmashBurger&lt;/div&gt;" style="swimlane;fontStyle=0;childLayout=stackLayout;horizontal=1;startSize=26;fillColor=#6d8764;horizontalStack=0;resizeParent=1;resizeParentMax=0;resizeLast=0;collapsible=1;marginBottom=0;whiteSpace=wrap;html=1;fontColor=#ffffff;strokeColor=#3A5431;" vertex="1" parent="1">
          <mxGeometry x="220" y="390" width="140" height="52" as="geometry" />
        </mxCell>
        <mxCell id="qH5AfbM5EPDE3e2Da-9J-18" value="+ execute()" style="text;strokeColor=none;fillColor=none;align=left;verticalAlign=top;spacingLeft=4;spacingRight=4;overflow=hidden;rotatable=0;points=[[0,0.5],[1,0.5]];portConstraint=eastwest;whiteSpace=wrap;html=1;" vertex="1" parent="qH5AfbM5EPDE3e2Da-9J-17">
          <mxGeometry y="26" width="140" height="26" as="geometry" />
        </mxCell>
      </root>
    </mxGraphModel>
  </diagram>
</mxfile>
